<?xml version="1.0" encoding="utf-8"?>
<!-- Generator: Adobe Illustrator 13.0.2, SVG Export Plug-In . SVG Version: 6.00 Build 14948)  -->
<!DOCTYPE svg PUBLIC "-//W3C//DTD SVG 1.1//EN" "http://www.w3.org/Graphics/SVG/1.1/DTD/svg11.dtd">
<svg version="1.1" id="Layer_1" xmlns="http://www.w3.org/2000/svg" xmlns:xlink="http://www.w3.org/1999/xlink" x="0px" y="0px"
	 width="115.999px" height="113.081px" viewBox="50.083 230.349 115.999 113.081"
	 enable-background="new 50.083 230.349 115.999 113.081" xml:space="preserve">
<polyline fill="#010202" points="74.686,72.817 63.827,72.817 71.143,35.188 82.001,35.188 74.686,72.817 "/>
<path fill="#010202" d="M51.347,72.817c-0.029-1.262,0.119-2.578,0.372-3.895c-2.821,3.235-6.185,4.442-10.023,4.442
	c-5.212,0-9.211-2.855-8.122-8.449c0.862-4.444,4.896-7.403,9.024-8.613c3.778-1.095,7.65-1.536,11.368-1.756l0.042-0.216
	c0.493-2.525,0.024-3.511-2.607-3.511c-2.141,0-4.292,0.946-5.08,3.306l-8.331,0.008c1.524-7.289,8.331-9.896,15.019-9.896
	c3.292,0,7.429,0.435,9.788,2.413c3.177,2.578,2.03,6.2,1.255,10.202l-1.909,9.82c-0.406,2.085-0.756,4.171-0.319,6.146H51.347
	 M52.963,59.708c-2.687,0.273-7.234,1.098-7.896,4.498c-0.351,1.809,0.651,2.576,2.352,2.576c4.112,0,4.84-3.456,5.436-6.527
	L52.963,59.708z"/>
<path fill="#E31837" d="M85.378,57.216c-0.512,2.657-1.031,5.336-1.031,5.336l-0.042,0.221c-0.306,1.563-0.656,3.041-0.601,4.403
	c0.005,0.13-0.023,0.234-0.145,0.255c-0.016-0.074-0.026-0.148-0.04-0.224c0,0.005,0,0.011,0,0.013
	c-0.646-3.396-0.988-6.9-0.988-10.487c0-1.623,0.071-3.229,0.208-4.816h3.926L85.378,57.216 M133.002,64.205
	c-0.355,1.81,0.648,2.578,2.35,2.578c4.115,0,4.84-3.456,5.438-6.527l0.108-0.551C138.212,59.981,133.661,60.804,133.002,64.205z
	 M84.121,69.478c0.011,0.111,0.056,0.248,0.143,0.471c0.105,0.191,0.227,0.382,0.361,0.562c1.695,2.307,4.31,3.238,7.292,2.855
	l6.577-0.825l1.524-7.84c-1.094,0.271-2.18,0.493-3.222,0.493c-2.578,0-2.051-1.592-1.655-3.623l1.879-9.654h5.484l1.387-7.134
	h-5.597l1.824-9.601H90.88l-2.399,9.601h-4.667c5.473-25.092,27.818-43.889,54.552-43.889c26.741,0,49.093,18.802,54.558,43.904
	c-1.139-0.39-2.408-0.562-3.633-0.562c-3.4,0-6.895,1.316-8.831,4.498h-0.104l0.765-3.952h-10.259l-5.445,28.033h10.857
	l3.146-16.183c0.448-2.304,1.225-4.882,4.242-4.882c2.357,0,1.898,2.357,1.57,4.06l-3.308,17.002h9.927
	c-6.908,22.996-28.236,39.752-53.483,39.752c-26.041,0-47.922-17.83-54.096-41.949c-0.166-0.557-0.324-1.078-0.398-1.292
	C83.984,69.301,84.086,69.364,84.121,69.478z M157.707,42.1h10.861l1.451-7.461h-10.862L157.707,42.1z M120.943,54.111
	c0.715,0,1.373,0,2.236,0.016l1.909-9.778l-1.46-0.111c-4.271-0.33-6.831,2.413-8.521,6.309h-0.11l1.12-5.763h-9.27l-5.449,28.033
	h10.86l2.367-12.18c0.317-1.646,0.672-3.453,1.705-4.825C117.521,54.222,119.191,54.111,120.943,54.111z M150.075,66.672
	l1.907-9.817c0.779-4.004,1.92-7.626-1.252-10.205c-2.358-1.972-6.498-2.413-9.791-2.413c-6.687,0-13.491,2.607-15.018,9.896
	l8.331-0.008c0.788-2.356,2.938-3.306,5.08-3.306c2.631,0,3.099,0.986,2.606,3.511l-0.043,0.216
	c-3.717,0.223-7.59,0.661-11.367,1.758c-4.129,1.208-8.161,4.167-9.025,8.61c-1.086,5.594,2.91,8.448,8.125,8.448
	c3.838,0,7.199-1.207,10.021-4.444c-0.256,1.317-0.402,2.634-0.375,3.896h10.479C149.32,70.84,149.669,68.758,150.075,66.672z
	 M162.598,72.817l5.448-28.033h-10.86l-5.449,28.033H162.598z"/>
<path fill="#010202" d="M22.016,34.639c-11.847,0-18.81,8.995-20.921,19.856c-2.08,10.695,2.257,18.871,13.556,18.871
	c8.668,0,16.063-5.598,18.749-14.948H22.812c-1.163,3.578-3.108,6.282-6.422,6.282c-5.209,0-4.181-6.422-3.448-10.205
	c0.693-3.564,2.438-11.41,7.54-11.41c3.648,0,4.255,3.512,3.601,7.334h10.703l0.119-0.696h0.032
	C35.991,40.342,31.614,34.639,22.016,34.639"/>
<path fill="#E31837" d="M191.954,75.952c0-2.111,1.711-3.667,3.733-3.667c2,0,3.711,1.556,3.711,3.667
	c0,2.125-1.711,3.68-3.711,3.68C193.665,79.632,191.954,78.077,191.954,75.952 M195.688,79.021c1.662,0,2.973-1.302,2.973-3.067
	c0-1.743-1.311-3.056-2.973-3.056c-1.682,0-2.994,1.312-2.994,3.056C192.691,77.719,194.006,79.021,195.688,79.021z M194.91,78.077
	h-0.645v-4.236h1.615c1.002,0,1.494,0.369,1.494,1.205c0,0.76-0.477,1.089-1.1,1.168l1.207,1.864h-0.723l-1.115-1.835h-0.736
	L194.91,78.077L194.91,78.077z M195.677,75.696c0.546,0,1.031-0.037,1.031-0.69c0-0.524-0.478-0.62-0.923-0.62h-0.875v1.312
	L195.677,75.696L195.677,75.696z"/>
<path fill="#FFFFFF" d="M121.062,54.31c0.715,0,1.373,0,2.236,0.016l1.91-9.778l-1.46-0.111c-4.271-0.33-6.831,2.413-8.522,6.309
	h-0.109l1.119-5.763h-9.27l-5.449,28.034h10.861l2.367-12.18c0.318-1.645,0.672-3.453,1.705-4.824
	C117.643,54.421,119.312,54.31,121.062,54.31z"/>
<polygon fill="#FFFFFF" points="162.718,73.017 168.165,44.983 157.307,44.983 151.855,73.017 "/>
<polygon fill="#FFFFFF" points="157.827,42.299 168.688,42.299 170.141,34.838 159.275,34.838 "/>
<path fill="#FFFFFF" d="M150.195,66.872l1.906-9.818c0.779-4.004,1.92-7.626-1.252-10.205c-2.357-1.972-6.498-2.413-9.791-2.413
	c-6.686,0-13.49,2.607-15.017,9.896l8.331-0.008c0.788-2.356,2.939-3.306,5.08-3.306c2.631,0,3.098,0.986,2.607,3.511l-0.043,0.216
	c-3.718,0.223-7.591,0.661-11.367,1.758c-4.129,1.209-8.162,4.168-9.026,8.611c-1.086,5.594,2.91,8.447,8.125,8.447
	c3.838,0,7.199-1.207,10.022-4.443c-0.256,1.316-0.403,2.633-0.375,3.895h10.479C149.439,71.04,149.789,68.958,150.195,66.872z"/>
<path d="M133.122,64.405c-0.354,1.809,0.647,2.578,2.351,2.578c4.114,0,4.84-3.457,5.438-6.527l0.107-0.551
	C138.332,60.181,133.781,61.003,133.122,64.405z"/>
<g>
	<path d="M14.173,172.246c-0.309-0.79-0.999-1.186-2.07-1.186c-0.835,0-1.542,0.198-2.124,0.593
		c-0.581,0.396-1.107,1.096-1.579,2.101s-0.931,2.361-1.373,4.066c-0.443,1.706-0.94,3.852-1.491,6.437s-0.97,4.731-1.253,6.437
		c-0.284,1.705-0.404,3.061-0.36,4.066s0.272,1.705,0.685,2.1c0.411,0.396,1.034,0.594,1.869,0.594c0.675,0,1.263-0.153,1.766-0.459
		c0.502-0.305,0.949-0.816,1.341-1.535c0.391-0.717,0.765-1.678,1.12-2.881c0.356-1.203,0.729-2.72,1.119-4.551h10.725l-0.609,2.854
		c-0.573,2.693-1.441,4.901-2.603,6.625c-1.162,1.724-2.505,3.08-4.023,4.066c-1.522,0.988-3.163,1.652-4.924,1.992
		c-1.762,0.342-3.536,0.513-5.323,0.513c-3.098,0-5.567-0.342-7.407-1.024c-1.842-0.681-3.147-1.821-3.919-3.42
		c-0.772-1.597-1.096-3.662-0.973-6.193c0.122-2.531,0.566-5.592,1.331-9.183c0.781-3.662,1.691-6.768,2.731-9.318
		c1.04-2.549,2.323-4.613,3.853-6.193s3.34-2.721,5.435-3.42c2.096-0.701,4.574-1.051,7.434-1.051c2.503,0,4.566,0.288,6.192,0.862
		c1.625,0.574,2.87,1.392,3.737,2.45c0.866,1.06,1.387,2.334,1.568,3.824c0.177,1.49,0.067,3.17-0.33,5.035l-0.516,2.424H13.477
		l0.459-2.154C14.403,174.526,14.481,173.036,14.173,172.246z"/>
	<path d="M38.351,201.922c0.035-0.537,0.078-1.111,0.128-1.723h-0.117c-0.872,1.293-2.022,2.262-3.451,2.908
		c-1.428,0.646-2.977,0.97-4.646,0.97c-1.629,0-2.969-0.188-4.021-0.565s-1.854-0.942-2.407-1.697
		c-0.555-0.754-0.881-1.65-0.976-2.693c-0.097-1.04-0.01-2.189,0.258-3.446c0.291-1.364,0.692-2.55,1.204-3.555
		s1.185-1.876,2.017-2.612c0.833-0.735,1.88-1.364,3.144-1.885c1.262-0.52,2.785-0.96,4.569-1.319l4.426-0.916
		c1.205-0.251,2.1-0.619,2.679-1.104c0.58-0.485,0.966-1.176,1.156-2.074c0.384-1.795-0.339-2.693-2.166-2.693
		c-1.032,0-1.842,0.262-2.43,0.781c-0.589,0.521-1.066,1.554-1.436,3.098h-9.295c0.452-2.118,1.23-3.816,2.337-5.09
		c1.106-1.275,2.349-2.264,3.729-2.963c1.38-0.7,2.812-1.166,4.291-1.4c1.479-0.233,2.835-0.35,4.066-0.35
		c1.866,0,3.556,0.134,5.067,0.404c1.512,0.269,2.758,0.754,3.74,1.453c0.984,0.7,1.654,1.652,2.014,2.855s0.335,2.756-0.069,4.658
		l-3.032,14.22c-0.29,1.365-0.486,2.566-0.589,3.607c-0.104,1.042-0.017,1.939,0.259,2.693H38.435
		C38.343,202.982,38.316,202.461,38.351,201.922z M38.487,196.536c0.683-0.788,1.199-1.992,1.543-3.608l0.747-3.501h-0.119
		c-0.403,0.396-0.94,0.638-1.616,0.728c-0.675,0.09-1.442,0.297-2.306,0.619c-0.911,0.359-1.588,0.834-2.032,1.428
		c-0.444,0.592-0.77,1.373-0.976,2.343c-0.208,0.97-0.133,1.741,0.221,2.315c0.354,0.576,0.928,0.862,1.723,0.862
		C36.864,197.722,37.8,197.327,38.487,196.536z"/>
	<path d="M71.656,165.028l-8.197,38.456H52.734l8.199-38.456H71.656z"/>
	<path fill="#E31837" d="M75.688,174.347l1.825-8.564h10.724l-1.826,8.564h4.232l-1.391,6.517h-4.23l-2.961,13.896
		c-0.177,0.826-0.093,1.409,0.251,1.75c0.345,0.342,0.954,0.512,1.827,0.512h1.67l-1.379,6.463c-0.994,0-1.992,0.027-2.996,0.08
		c-1.004,0.055-1.964,0.082-2.877,0.082c-1.63,0-3.005-0.064-4.131-0.189c-1.125-0.125-2.002-0.439-2.628-0.941
		c-0.629-0.503-1.005-1.248-1.133-2.236c-0.128-0.986-0.018-2.289,0.326-3.904l3.307-15.512h-3.575l1.39-6.517H75.688z"/>
	<path fill="#E31837" d="M102.974,174.347l-0.986,4.632h0.119c0.969-1.759,2.209-3.097,3.713-4.013
		c1.51-0.916,3.057-1.373,4.644-1.373h1.729l-1.93,9.049c-0.459-0.072-0.905-0.126-1.335-0.162
		c-0.432-0.035-0.863-0.054-1.299-0.054c-1.906,0-3.467,0.377-4.68,1.131c-1.217,0.754-2.027,2.101-2.442,4.039l-3.386,15.889
		H86.396l6.212-29.138H102.974z"/>
	<path fill="#E31837" d="M123.25,201.922c0.035-0.537,0.078-1.111,0.131-1.723h-0.119c-0.873,1.293-2.021,2.262-3.453,2.908
		c-1.428,0.646-2.977,0.97-4.645,0.97c-1.631,0-2.969-0.188-4.02-0.565s-1.854-0.942-2.409-1.697
		c-0.551-0.754-0.881-1.65-0.975-2.693c-0.096-1.04-0.008-2.189,0.26-3.446c0.289-1.364,0.693-2.55,1.203-3.555
		c0.512-1.005,1.185-1.876,2.017-2.612c0.834-0.735,1.879-1.364,3.143-1.885c1.262-0.52,2.787-0.96,4.57-1.319l4.424-0.916
		c1.207-0.251,2.1-0.619,2.682-1.104c0.578-0.485,0.967-1.176,1.156-2.074c0.383-1.795-0.338-2.693-2.166-2.693
		c-1.033,0-1.844,0.262-2.434,0.781c-0.586,0.521-1.062,1.554-1.434,3.098h-9.295c0.455-2.118,1.232-3.816,2.338-5.09
		c1.105-1.275,2.348-2.264,3.73-2.963c1.381-0.7,2.811-1.166,4.291-1.4c1.479-0.233,2.834-0.35,4.064-0.35
		c1.867,0,3.557,0.134,5.07,0.404c1.51,0.269,2.756,0.754,3.738,1.453c0.984,0.7,1.654,1.652,2.014,2.855
		c0.357,1.203,0.336,2.756-0.068,4.658l-3.031,14.22c-0.291,1.365-0.488,2.566-0.592,3.607c-0.104,1.042-0.016,1.939,0.26,2.693
		h-10.367C123.242,202.982,123.217,202.461,123.25,201.922z M123.387,196.536c0.682-0.788,1.199-1.992,1.543-3.608l0.746-3.501
		h-0.119c-0.402,0.396-0.939,0.638-1.615,0.728c-0.672,0.09-1.441,0.297-2.307,0.619c-0.912,0.359-1.586,0.834-2.029,1.428
		c-0.447,0.592-0.771,1.373-0.979,2.343s-0.135,1.741,0.223,2.315c0.354,0.576,0.926,0.862,1.721,0.862
		C121.762,197.722,122.699,197.327,123.387,196.536z"/>
	<path fill="#E31837" d="M156.557,165.028l-1.541,7.218h-10.725l1.539-7.218H156.557z M154.568,174.347l-6.211,29.138h-10.725
		l6.211-29.138H154.568z"/>
	<path fill="#E31837" d="M169.402,174.347l-0.756,3.555h0.119c2.004-2.872,4.91-4.309,8.725-4.309c1.191,0,2.266,0.116,3.234,0.35
		c0.959,0.234,1.754,0.656,2.379,1.266c0.625,0.611,1.045,1.42,1.27,2.424c0.221,1.006,0.166,2.299-0.172,3.878l-4.684,21.975
		h-10.723l4.1-19.228c0.258-1.221,0.244-2.101-0.037-2.64c-0.281-0.538-0.898-0.808-1.852-0.808s-1.688,0.27-2.201,0.808
		c-0.51,0.539-0.895,1.419-1.154,2.64l-4.1,19.228h-10.725l6.211-29.138H169.402z"/>
	<path d="M202.254,165.028l1.135,11.149h0.119l5.893-11.149h12.395l-13.279,18.959l5.795,19.497H201.92l-1.766-11.58h-0.119
		l-6.697,11.58h-12.213l14.047-19.497l-5.311-18.959H202.254z"/>
</g>
<g>
	<circle fill="#E31837" cx="107.473" cy="286.765" r="55.689"/>
	<g>
		<path d="M54.285,234.156h35.732l18.582,32.296l18.08-32.296h35.375l-32.674,50.842l35.754,54.135h-36.449l-20.73-33.728
			l-20.73,33.728H50.991l36.212-54.708L54.285,234.156z"/>
	</g>
</g>
</svg>
